<svg width="16" height="16" viewBox="0 0 16 16" fill="none" xmlns="http://www.w3.org/2000/svg">
<path fill-rule="evenodd" clip-rule="evenodd" d="M14.9994 2.50022V11.0001H13.9995V2.50022C13.9995 2.22408 13.7756 2.00023 13.4995 2.00023H6.00009V1.00024H13.4995C14.3279 1.00024 14.9994 1.67181 14.9994 2.50022ZM5.4998 1.00029C5.22366 1.00029 4.99981 1.22414 4.99981 1.50028C4.99981 1.77642 5.22366 2.00027 5.4998 2.00027H5.99979V1.00029H5.4998ZM14.9999 11.0001V11.5001C14.9999 11.7762 14.776 12.0001 14.4999 12.0001C14.2238 12.0001 13.9999 11.7762 13.9999 11.5001V11.0001H14.9999ZM2.49997 4.00024H11.4998C11.776 4.00024 11.9998 4.22409 11.9998 4.50023V13.5001C11.9998 13.7762 11.776 14.0001 11.4998 14.0001H2.49997C2.22384 14.0001 1.99998 13.7762 1.99998 13.5001V4.50023C1.99998 4.22409 2.22384 4.00024 2.49997 4.00024ZM1 4.50023C1 3.67182 1.67156 3.00025 2.49997 3.00025H11.4998C12.3282 3.00025 12.9998 3.67182 12.9998 4.50023V13.5001C12.9998 14.3285 12.3282 15 11.4998 15H2.49997C1.67156 15 1 14.3285 1 13.5001V4.50023Z" fill="#575766"/>
</svg>
