<svg width="16" height="16" viewBox="0 0 16 16" fill="none" xmlns="http://www.w3.org/2000/svg">
<path fill-rule="evenodd" clip-rule="evenodd" d="M7.02637 12.8532L3.07654 8.89798C3.01798 8.83942 2.94846 8.79297 2.87195 8.76127C2.79544 8.72958 2.71344 8.71327 2.63062 8.71327C2.54781 8.71327 2.4658 8.72958 2.38929 8.76127C2.31278 8.79297 2.24326 8.83942 2.1847 8.89798C2.12615 8.95653 2.0797 9.02605 2.048 9.10256C2.01631 9.17907 2 9.26108 2 9.34389C2 9.42671 2.01631 9.50871 2.048 9.58522C2.0797 9.66173 2.12615 9.73125 2.1847 9.78981L7.20912 14.8142C7.2675 14.8731 7.33697 14.9198 7.4135 14.9517C7.49004 14.9836 7.57212 15 7.65504 15C7.73795 15 7.82004 14.9836 7.89657 14.9517C7.9731 14.9198 8.04257 14.8731 8.10095 14.8142L13.1254 9.78981C13.2436 9.67155 13.3101 9.51114 13.3101 9.34389C13.3101 9.17664 13.2436 9.01624 13.1254 8.89798C13.0071 8.77971 12.8467 8.71327 12.6794 8.71327C12.5122 8.71327 12.3518 8.77971 12.2335 8.89798L8.28247 12.8545V1.62795C8.28247 1.46138 8.2163 1.30163 8.09852 1.18385C7.98074 1.06606 7.82099 0.999896 7.65442 0.999896C7.48785 0.999896 7.3281 1.06606 7.21032 1.18385C7.09254 1.30163 7.02637 1.46138 7.02637 1.62795V12.8532Z" fill="#575766"/>
</svg>
