<svg width="12" height="14" viewBox="0 0 12 14" fill="none" xmlns="http://www.w3.org/2000/svg">
<path fill-rule="evenodd" clip-rule="evenodd" d="M5.02637 2.14678L1.07654 6.10202C1.01798 6.16058 0.948461 6.20703 0.87195 6.23873C0.79544 6.27042 0.713436 6.28673 0.630622 6.28673C0.547807 6.28673 0.465804 6.27042 0.389293 6.23873C0.312783 6.20703 0.243263 6.16058 0.184705 6.10202C0.126146 6.04347 0.0796951 5.97395 0.0480034 5.89744C0.0163117 5.82093 0 5.73892 0 5.65611C0 5.57329 0.0163117 5.49129 0.0480034 5.41478C0.0796951 5.33827 0.126146 5.26875 0.184705 5.21019L5.20912 0.185777C5.2675 0.12691 5.33697 0.080187 5.4135 0.0483017C5.49004 0.0164163 5.57212 0 5.65504 0C5.73795 0 5.82004 0.0164163 5.89657 0.0483017C5.9731 0.080187 6.04257 0.12691 6.10095 0.185777L11.1254 5.21019C11.2436 5.32845 11.3101 5.48886 11.3101 5.65611C11.3101 5.82336 11.2436 5.98376 11.1254 6.10202C11.0071 6.22029 10.8467 6.28673 10.6794 6.28673C10.5122 6.28673 10.3518 6.22029 10.2335 6.10202L6.28247 2.14554V13.3721C6.28247 13.5386 6.2163 13.6984 6.09852 13.8162C5.98074 13.9339 5.82099 14.0001 5.65442 14.0001C5.48785 14.0001 5.3281 13.9339 5.21032 13.8162C5.09254 13.6984 5.02637 13.5386 5.02637 13.3721V2.14678Z" fill="#575766"/>
</svg>
