<svg t="1723083085848" class="icon" viewBox="0 0 1024 1024" version="1.1" xmlns="http://www.w3.org/2000/svg" p-id="5290"
    width="200" height="200">
    <path
        d="M512 0C230.4 0 0 230.4 0 512s230.4 512 512 512 512-230.4 512-512S793.6 0 512 0z m-55.466667 746.666667c-12.8 12.8-29.866667 17.066667-46.933333 17.066666-17.066667 0-34.133333-4.266667-46.933333-17.066666l-213.333334-209.066667c-17.066667-17.066667-17.066667-42.666667 0-59.733333 17.066667-17.066667 42.666667-17.066667 59.733334 0l200.533333 196.266666 405.333333-405.333333c17.066667-17.066667 42.666667-17.066667 59.733334 0 17.066667 17.066667 17.066667 42.666667 0 59.733333l-418.133334 418.133334z"
        fill="#24CA49" p-id="5291"></path>
</svg>