<svg t="1723098056212" class="icon" viewBox="0 0 1024 1024" version="1.1" xmlns="http://www.w3.org/2000/svg" p-id="5191"
    width="200" height="200">
    <path
        d="M770.04 927.23H253c-28.67 0-52-23.33-52-52V243.16c0-16.9 13.75-30.64 30.64-30.64h590.4v662.71c0 28.68-23.33 52-52 52z m-509.04-60h501.04V272.52H261v594.71z"
        p-id="5192"></path>
    <path
        d="M414.79 754.06c-16.57 0-30-13.43-30-30V434.52c0-16.57 13.43-30 30-30s30 13.43 30 30v289.54c0 16.57-13.43 30-30 30zM889.05 270.49H133.98c-16.57 0-30-13.43-30-30s13.43-30 30-30h755.07c16.57 0 30 13.43 30 30s-13.43 30-30 30zM599.91 755.57c-16.57 0-30-13.43-30-30V436.02c0-16.57 13.43-30 30-30s30 13.43 30 30v289.54c0 16.57-13.44 30.01-30 30.01zM618.42 160.15H404.68c-16.57 0-30-13.43-30-30s13.43-30 30-30h213.74c16.57 0 30 13.43 30 30s-13.44 30-30 30z"
        p-id="5193"></path>
</svg>