<svg width="16" height="16" viewBox="0 0 16 16" fill="none" xmlns="http://www.w3.org/2000/svg">
<path d="M8.08327 9.96945L12.2133 5.83938C12.3144 5.73834 12.4514 5.68158 12.5943 5.68158C12.7372 5.68158 12.8742 5.73834 12.9753 5.83938C13.0763 5.94042 13.1331 6.07746 13.1331 6.22035C13.1331 6.36324 13.0763 6.50028 12.9753 6.60132L7.97937 11.5972C7.86316 11.7094 7.70796 11.7721 7.54645 11.7721C7.38495 11.7721 7.22974 11.7094 7.11353 11.5972L2.1003 6.60998C2.05027 6.55995 2.01058 6.50056 1.98351 6.43519C1.95643 6.36982 1.9425 6.29976 1.9425 6.22901C1.9425 6.15826 1.95643 6.0882 1.98351 6.02283C2.01058 5.95746 2.05027 5.89807 2.1003 5.84804C2.15033 5.79801 2.20972 5.75832 2.27509 5.73125C2.34046 5.70417 2.41052 5.69024 2.48127 5.69024C2.55202 5.69024 2.62208 5.70417 2.68745 5.73125C2.75282 5.75832 2.81221 5.79801 2.86224 5.84804L6.99231 9.97811V1.61407C6.98258 1.53726 6.9893 1.45926 7.01205 1.38525C7.03479 1.31124 7.07303 1.24292 7.12422 1.18483C7.17541 1.12674 7.23838 1.08022 7.30894 1.04835C7.3795 1.01648 7.45604 1 7.53346 1C7.61089 1 7.68743 1.01648 7.75799 1.04835C7.82855 1.08022 7.89152 1.12674 7.94271 1.18483C7.9939 1.24292 8.03214 1.31124 8.05488 1.38525C8.07762 1.45926 8.08435 1.53726 8.07462 1.61407L8.08327 9.96945ZM1.47689 15C1.34516 14.9833 1.22403 14.9191 1.13624 14.8195C1.04844 14.7199 1 14.5916 1 14.4588C1 14.3261 1.04844 14.1978 1.13624 14.0982C1.22403 13.9986 1.34516 13.9344 1.47689 13.9177H13.5987C13.7304 13.9344 13.8516 13.9986 13.9394 14.0982C14.0271 14.1978 14.0756 14.3261 14.0756 14.4588C14.0756 14.5916 14.0271 14.7199 13.9394 14.8195C13.8516 14.9191 13.7304 14.9833 13.5987 15H1.47689Z" fill="#575766"/>
</svg>
