<svg width="14" height="14" viewBox="0 0 14 14" fill="none" xmlns="http://www.w3.org/2000/svg">
<path d="M7.00036 0.000244141C7.14359 0.000244141 7.28036 0.0680761 7.38157 0.189779C7.48519 0.31923 7.54075 0.480583 7.5388 0.646383V2.5848C7.5388 2.94125 7.29759 3.23094 7.00036 3.23094C6.70313 3.23094 6.46191 2.94125 6.46191 2.5848V0.646383C6.46191 0.289918 6.70313 0.000244141 7.00036 0.000244141Z" fill="#231916"/>
<path d="M10.4612 1.17077C10.7562 1.36461 10.8564 1.79428 10.6873 2.1292L9.76439 3.95238C9.71759 4.05548 9.64285 4.14342 9.54863 4.20623C9.45442 4.26904 9.3445 4.30421 9.23133 4.30776C9.11829 4.30482 9.00833 4.27027 8.91393 4.20803C8.81952 4.14579 8.74444 4.05835 8.69719 3.95562C8.64292 3.84609 8.61487 3.72545 8.61524 3.60322C8.61561 3.48099 8.6444 3.36052 8.69934 3.25133L9.62223 1.42813C9.79131 1.09214 10.1671 0.976925 10.4622 1.17077" fill="#3E3A39"/>
<path d="M12.8283 3.53886C13.0221 3.83395 12.9079 4.20979 12.5709 4.37993L10.7434 5.30392C10.4074 5.47192 9.97987 5.3696 9.78712 5.07669C9.59326 4.78377 9.70635 4.40901 10.0402 4.23671L11.8677 3.3138C12.2047 3.14366 12.6344 3.24381 12.8283 3.53888" fill="#595757"/>
<path d="M14.0002 7.00011C14.0002 7.14335 13.9324 7.28012 13.8107 7.38133C13.6812 7.48494 13.5199 7.5405 13.3541 7.53856H11.4157C11.0592 7.53856 10.7695 7.29734 10.7695 7.00011C10.7695 6.70288 11.0592 6.46167 11.4157 6.46167H13.3541C13.5264 6.46167 13.6901 6.51874 13.8107 6.6189C13.8685 6.66446 13.9155 6.72229 13.9483 6.78821C13.9811 6.85413 13.9988 6.92651 14.0002 7.00011Z" fill="#717070"/>
<path d="M12.8294 10.4612C12.6355 10.7562 12.2059 10.8564 11.871 10.6873L10.0467 9.76439C9.94378 9.71744 9.85607 9.64263 9.79346 9.54843C9.73085 9.45422 9.69584 9.34439 9.69238 9.23133C9.69238 9.01056 9.82593 8.80702 10.0445 8.69719C10.1541 8.64292 10.2747 8.61487 10.3969 8.61524C10.5192 8.61561 10.6396 8.6444 10.7488 8.69934L12.572 9.62223C12.908 9.79131 13.0222 10.1671 12.8294 10.4622" fill="#888889"/>
<path d="M10.4612 12.8283C10.1661 13.0221 9.79025 12.9079 9.6201 12.5709L8.69612 10.7434C8.52812 10.4074 8.63043 9.97987 8.92334 9.78712C9.21626 9.59326 9.59103 9.70635 9.76332 10.0402L10.6862 11.8677C10.8564 12.2047 10.7551 12.6344 10.4612 12.8283" fill="#9E9F9F"/>
<path d="M7.00041 14C6.9268 13.9986 6.85443 13.9808 6.7885 13.948C6.72258 13.9153 6.66475 13.8683 6.61919 13.8104C6.51558 13.681 6.46002 13.5196 6.46196 13.3538V11.4154C6.46196 11.059 6.70318 10.7693 7.00041 10.7693C7.29764 10.7693 7.53885 11.059 7.53885 11.4154V13.3538C7.53885 13.5262 7.48178 13.6898 7.38162 13.8104C7.33606 13.8683 7.27823 13.9153 7.21231 13.948C7.14639 13.9808 7.07401 13.9986 7.00041 14Z" fill="#B4B5B5"/>
<path d="M3.53736 12.8294C3.24336 12.6355 3.14321 12.2059 3.31335 11.871L4.23518 10.0467C4.28213 9.94378 4.35694 9.85607 4.45114 9.79346C4.54534 9.73085 4.65518 9.69584 4.76824 9.69238C4.98901 9.69238 5.19255 9.82593 5.30238 10.0445C5.35665 10.1541 5.3847 10.2747 5.38433 10.3969C5.38396 10.5192 5.35517 10.6396 5.30023 10.7488L4.37734 12.572C4.20826 12.908 3.83243 13.0222 3.53736 12.8294Z" fill="#C3C4C4"/>
<path d="M1.17147 10.4612C0.977648 10.1661 1.09181 9.79025 1.42887 9.6201L3.25636 8.69612C3.59236 8.52812 4.01988 8.63043 4.21263 8.92334C4.40649 9.21626 4.2934 9.59103 3.95957 9.76332L2.13208 10.6862C1.79501 10.8564 1.36533 10.7551 1.17149 10.4612" fill="#D2D2D3"/>
<path d="M0 7.00011C0 6.70288 0.289674 6.46167 0.646139 6.46167H2.58455C2.941 6.46167 3.23069 6.70288 3.23069 7.00011C3.23069 7.29734 2.941 7.53856 2.58455 7.53856H0.646139C0.480339 7.5405 0.318986 7.48494 0.189535 7.38133C0.131706 7.33577 0.0847095 7.27794 0.0519338 7.21202C0.019158 7.1461 0.00142033 7.07372 0 7.00011Z" fill="#DBDCDC"/>
<path d="M1.17028 3.53785C1.36412 3.24385 1.7938 3.1437 2.12871 3.31384L3.95189 4.23566C4.17159 4.34443 4.30727 4.54797 4.30727 4.76873C4.30433 4.88177 4.26978 4.99172 4.20754 5.08613C4.1453 5.18054 4.05786 5.25562 3.95513 5.30287C3.8456 5.35714 3.72496 5.38519 3.60273 5.38482C3.4805 5.38445 3.36003 5.35566 3.25084 5.30072L1.42765 4.37783C1.09166 4.20875 0.976437 3.83292 1.17028 3.53785Z" fill="#EDEEEE"/>
<path d="M3.5383 1.17196C3.83338 0.978137 4.20922 1.0923 4.37936 1.42936L5.30335 3.25685C5.47135 3.59285 5.36903 4.02037 5.07612 4.21312C4.7832 4.40698 4.40844 4.29389 4.23614 3.96006L3.31429 2.13257C3.14415 1.7955 3.2443 1.36582 3.53937 1.17198" fill="#F6F6F6"/>
</svg>
