<svg xmlns="http://www.w3.org/2000/svg" viewBox="0 0 48 48">
    <g fillRule="evenodd">
        <path
            d="m5.986 22.06.046.012.144.045.15.06.122.062.193.118.137.104.104.094.097.099.101.12.104.147.055.091A1.989 1.989 0 0 1 7.5 24c0 8.837 7.163 16 16 16a15.945 15.945 0 0 0 11.314-4.686 16.088 16.088 0 0 0 1.992-2.426 2 2 0 0 1 3.324 2.225 20.088 20.088 0 0 1-8.974 7.369A19.945 19.945 0 0 1 23.5 44c-6.543 0-12.351-3.142-16-7.998V40a2 2 0 0 1-3.995.15L3.5 40V24a2 2 0 0 1 1.85-1.995L5.5 22l.152.006.183.022.151.031zM23.5 4c6.543 0 12.352 3.142 16.001 8L39.5 8a2 2 0 0 1 3.995-.15L43.5 8v16a2 2 0 0 1-1.85 1.995L41.5 26l-.152-.006-.183-.022-.151-.031-.133-.039-.157-.058-.123-.057-.141-.078-.159-.108-.144-.119-.136-.136-.101-.12-.104-.147-.055-.091a1.988 1.988 0 0 1-.256-.839L39.5 24c0-8.837-7.163-16-16-16a15.945 15.945 0 0 0-11.314 4.686 16.088 16.088 0 0 0-1.992 2.426 2 2 0 0 1-3.324-2.225 20.088 20.088 0 0 1 8.974-7.369A19.945 19.945 0 0 1 23.5 4z" />
    </g>
</svg>