<svg width="12" height="14" viewBox="0 0 12 14" fill="none" xmlns="http://www.w3.org/2000/svg">
<path d="M8.9365 0.583374H10.6667C10.8214 0.583374 10.9697 0.644832 11.0791 0.754228C11.1885 0.863625 11.25 1.012 11.25 1.16671V12.8334C11.25 12.9881 11.1885 13.1365 11.0791 13.2459C10.9697 13.3552 10.8214 13.4167 10.6667 13.4167L1.33333 13.4214C1.17862 13.4214 1.03025 13.3599 0.920854 13.2505C0.811458 13.1411 0.75 12.9928 0.75 12.838V1.17137C0.75 1.01666 0.811458 0.868291 0.920854 0.758895C1.03025 0.649499 1.17862 0.588041 1.33333 0.588041L3.09383 0.583374H8.9365ZM3.375 4.52496H8.625C8.77969 4.52493 8.92804 4.46347 9.03742 4.35407C9.1468 4.24468 9.20824 4.09632 9.20824 3.94162C9.20824 3.78693 9.1468 3.63857 9.03742 3.52918C8.92804 3.41978 8.77969 3.35831 8.625 3.35829H3.375C3.29839 3.35828 3.22252 3.37336 3.15174 3.40267C3.08096 3.43198 3.01664 3.47494 2.96246 3.52911C2.90829 3.58328 2.86531 3.64759 2.83599 3.71837C2.80667 3.78915 2.79158 3.86501 2.79158 3.94162C2.79158 4.01824 2.80667 4.0941 2.83599 4.16488C2.86531 4.23566 2.90829 4.29997 2.96246 4.35413C3.01664 4.4083 3.08096 4.45127 3.15174 4.48058C3.22252 4.50989 3.29839 4.52497 3.375 4.52496ZM3.375 7.44162H8.625C8.77971 7.44162 8.92808 7.38017 9.03748 7.27077C9.14687 7.16137 9.20833 7.013 9.20833 6.85829C9.20833 6.70358 9.14687 6.55521 9.03748 6.44581C8.92808 6.33642 8.77971 6.27496 8.625 6.27496H3.375C3.22029 6.27496 3.07192 6.33642 2.96252 6.44581C2.85312 6.55521 2.79167 6.70358 2.79167 6.85829C2.79167 7.013 2.85312 7.16137 2.96252 7.27077C3.07192 7.38017 3.22029 7.44162 3.375 7.44162Z" fill="#FF7A2F"/>
</svg>
